<mxfile host="app.diagrams.net" agent="Mozilla/5.0 (Windows NT 10.0; Win64; x64) AppleWebKit/537.36 (KHTML, like Gecko) Chrome/128.0.0.0 Safari/537.36 Edg/128.0.0.0" version="24.7.8">
  <diagram name="第 1 页" id="5o3OT1Kweq1s9FPgGdGW">
    <mxGraphModel dx="2505" dy="921" grid="1" gridSize="10" guides="1" tooltips="1" connect="1" arrows="1" fold="1" page="1" pageScale="1" pageWidth="827" pageHeight="1169" math="0" shadow="0">
      <root>
        <mxCell id="0" />
        <mxCell id="1" parent="0" />
        <mxCell id="SuW-aeRowbUI4IWuJljU-11" value="" style="rounded=0;whiteSpace=wrap;html=1;fillColor=#b1ddf0;strokeColor=#000000;textDirection=rtl;horizontal=0;verticalAlign=bottom;fontColor=#f25050;glass=0;" parent="1" vertex="1">
          <mxGeometry x="-130" y="240" width="2050" height="1490" as="geometry" />
        </mxCell>
        <mxCell id="SuW-aeRowbUI4IWuJljU-10" value="项目名称： 范水铁拳" style="rounded=0;whiteSpace=wrap;html=1;fillColor=#0050ef;fontColor=#ffffff;strokeColor=#001DBC;fontSize=28;" parent="1" vertex="1">
          <mxGeometry x="470" y="80" width="850" height="120" as="geometry" />
        </mxCell>
        <mxCell id="SuW-aeRowbUI4IWuJljU-12" value="&lt;font style=&quot;font-size: 32px;&quot;&gt;作战流程&lt;/font&gt;" style="rounded=1;whiteSpace=wrap;html=1;fillColor=#e3c800;fontColor=#000000;strokeColor=#B09500;fontSize=16;" parent="1" vertex="1">
          <mxGeometry x="-130" y="230" width="2050" height="60" as="geometry" />
        </mxCell>
        <mxCell id="SuW-aeRowbUI4IWuJljU-13" value="&lt;span style=&quot;color: rgb(50, 50, 50); font-family: &amp;quot;Microsoft YaHei&amp;quot;, 微软雅黑, Arial; text-align: left; background-color: rgba(255, 255, 255, 0.01);&quot;&gt;&lt;font style=&quot;font-size: 13px;&quot;&gt;情指中心，接收到xx街道红十字路口，发生了一起撞人并逃逸案件之后，对情报分析研判，规划情报需求并对此案件建立信息档案。下发指令到合成作战中心。&lt;/font&gt;&lt;/span&gt;" style="rounded=1;whiteSpace=wrap;html=1;" parent="1" vertex="1">
          <mxGeometry x="220" y="360" width="280" height="130" as="geometry" />
        </mxCell>
        <mxCell id="SuW-aeRowbUI4IWuJljU-18" value="" style="edgeStyle=orthogonalEdgeStyle;rounded=0;orthogonalLoop=1;jettySize=auto;html=1;dashed=1;curved=1;" parent="1" source="SuW-aeRowbUI4IWuJljU-13" target="SuW-aeRowbUI4IWuJljU-26" edge="1">
          <mxGeometry relative="1" as="geometry">
            <mxPoint x="405" y="650" as="targetPoint" />
            <mxPoint x="360.00000000000045" y="705" as="sourcePoint" />
          </mxGeometry>
        </mxCell>
        <mxCell id="SuW-aeRowbUI4IWuJljU-74" style="edgeStyle=orthogonalEdgeStyle;rounded=0;orthogonalLoop=1;jettySize=auto;html=1;fontFamily=Helvetica;fontSize=24;fontColor=#000000;fontStyle=1;dashed=1;" parent="1" source="SuW-aeRowbUI4IWuJljU-26" target="SuW-aeRowbUI4IWuJljU-81" edge="1">
          <mxGeometry relative="1" as="geometry">
            <mxPoint x="360" y="1500" as="targetPoint" />
          </mxGeometry>
        </mxCell>
        <mxCell id="SuW-aeRowbUI4IWuJljU-26" value="" style="ellipse;whiteSpace=wrap;html=1;fillColor=#fad9d5;strokeColor=#ae4132;" parent="1" vertex="1">
          <mxGeometry x="-88.75" y="860" width="897.5" height="510" as="geometry" />
        </mxCell>
        <mxCell id="SuW-aeRowbUI4IWuJljU-17" value="&lt;div style=&quot;font-size: 16px;&quot;&gt;&lt;font style=&quot;font-size: 16px;&quot;&gt;&lt;b style=&quot;background-color: initial; color: rgb(50, 50, 50); font-family: &amp;quot;Microsoft YaHei&amp;quot;, 微软雅黑, Arial;&quot;&gt;网安部门&lt;/b&gt;&lt;span style=&quot;background-color: initial; color: rgb(50, 50, 50); font-family: &amp;quot;Microsoft YaHei&amp;quot;, 微软雅黑, Arial;&quot;&gt;：接收到&quot;合成作战中心&quot;命令，到事故现场，维护公共场所治安秩序。&lt;/span&gt;&lt;span style=&quot;color: rgb(50, 50, 50); font-family: &amp;quot;Microsoft YaHei&amp;quot;, 微软雅黑, Arial; background-color: rgba(255, 255, 255, 0.01);&quot;&gt;&amp;nbsp; &amp;nbsp; &amp;nbsp; &amp;nbsp; &amp;nbsp; &amp;nbsp; &amp;nbsp; &amp;nbsp;&amp;nbsp;&lt;/span&gt;&lt;/font&gt;&lt;/div&gt;&lt;div style=&quot;resize: none; outline: none; color: rgb(50, 50, 50); font-family: &amp;quot;Microsoft YaHei&amp;quot;, 微软雅黑, Arial; font-size: 16px;&quot;&gt;&lt;font style=&quot;font-size: 16px;&quot;&gt;&lt;br&gt;&lt;/font&gt;&lt;/div&gt;&lt;div style=&quot;resize: none; outline: none; color: rgb(50, 50, 50); font-family: &amp;quot;Microsoft YaHei&amp;quot;, 微软雅黑, Arial; font-size: 16px;&quot;&gt;&lt;font style=&quot;font-size: 16px;&quot;&gt;&lt;font style=&quot;font-size: 16px;&quot;&gt;&lt;b&gt;视频部门&lt;/b&gt;：接收到&quot;情报中心&quot;命令，进行视频巡查与分析，通过实时查看监控视频，及时发现异常情况，并对重点区域、重点时段的视频进行深入分析，挖掘潜在的治安隐患和犯罪线索，并收集整理，为侦破提供关键证据；其次队图像&lt;/font&gt;&lt;span style=&quot;background-color: initial;&quot;&gt;进行分析，查找犯罪嫌疑人的行踪轨迹、作案手段、作案工具等关键线索；利用人脸识别技术，对监控中的人员进行识别和比对，确认嫌疑人身份；对涉案车辆的车牌、车型、颜色等特征进行识别和追踪。&lt;/span&gt;&lt;/font&gt;&lt;/div&gt;&lt;div style=&quot;resize: none; outline: none; color: rgb(50, 50, 50); font-family: &amp;quot;Microsoft YaHei&amp;quot;, 微软雅黑, Arial; font-size: 16px;&quot;&gt;&lt;font style=&quot;font-size: 16px;&quot;&gt;&lt;br&gt;&lt;/font&gt;&lt;/div&gt;&lt;div style=&quot;resize: none; outline: none; color: rgb(50, 50, 50); font-family: &amp;quot;Microsoft YaHei&amp;quot;, 微软雅黑, Arial; font-size: 16px;&quot;&gt;&lt;font style=&quot;font-size: 16px;&quot;&gt;&lt;b style=&quot;&quot;&gt;技侦部门&lt;/b&gt;：&lt;/font&gt;&lt;span style=&quot;background-color: rgb(255, 255, 255); color: rgba(0, 0, 0, 0.85); font-family: Inter, -apple-system, BlinkMacSystemFont, &amp;quot;Segoe UI&amp;quot;, &amp;quot;SF Pro SC&amp;quot;, &amp;quot;SF Pro Display&amp;quot;, &amp;quot;SF Pro Icons&amp;quot;, &amp;quot;PingFang SC&amp;quot;, &amp;quot;Hiragino Sans GB&amp;quot;, &amp;quot;Microsoft YaHei&amp;quot;, &amp;quot;Helvetica Neue&amp;quot;, Helvetica, Arial, sans-serif;&quot;&gt;利用定位技术对犯罪嫌疑人进行实时定位和跟踪，以便掌握其行踪动态，&lt;/span&gt;&lt;span style=&quot;background-color: rgb(255, 255, 255); color: rgba(0, 0, 0, 0.85); font-family: Inter, -apple-system, BlinkMacSystemFont, &amp;quot;Segoe UI&amp;quot;, &amp;quot;SF Pro SC&amp;quot;, &amp;quot;SF Pro Display&amp;quot;, &amp;quot;SF Pro Icons&amp;quot;, &amp;quot;PingFang SC&amp;quot;, &amp;quot;Hiragino Sans GB&amp;quot;, &amp;quot;Microsoft YaHei&amp;quot;, &amp;quot;Helvetica Neue&amp;quot;, Helvetica, Arial, sans-serif;&quot;&gt;准确地锁定犯罪嫌疑人的位置，为实施抓捕行动提供精确的位置信息，&lt;/span&gt;&lt;span style=&quot;background-color: rgb(255, 255, 255); color: rgba(0, 0, 0, 0.85); font-family: Inter, -apple-system, BlinkMacSystemFont, &amp;quot;Segoe UI&amp;quot;, &amp;quot;SF Pro SC&amp;quot;, &amp;quot;SF Pro Display&amp;quot;, &amp;quot;SF Pro Icons&amp;quot;, &amp;quot;PingFang SC&amp;quot;, &amp;quot;Hiragino Sans GB&amp;quot;, &amp;quot;Microsoft YaHei&amp;quot;, &amp;quot;Helvetica Neue&amp;quot;, Helvetica, Arial, sans-serif;&quot;&gt;为其他执法部门提供技术支持和咨询服务，帮助解决在案件侦查过程中遇到的技术难题&lt;/span&gt;&lt;/div&gt;" style="whiteSpace=wrap;html=1;rounded=1;align=left;" parent="1" vertex="1">
          <mxGeometry x="26.25" y="941.57" width="687.5" height="338.43" as="geometry" />
        </mxCell>
        <mxCell id="SuW-aeRowbUI4IWuJljU-28" value="各部门协同作战" style="text;strokeColor=none;fillColor=none;html=1;fontSize=24;fontStyle=1;verticalAlign=middle;align=center;fontFamily=Helvetica;fontColor=#333333;horizontal=1;textDirection=vertical-rl;" parent="1" vertex="1">
          <mxGeometry x="-50" y="1090" width="60" height="30" as="geometry" />
        </mxCell>
        <mxCell id="SuW-aeRowbUI4IWuJljU-33" style="edgeStyle=orthogonalEdgeStyle;rounded=1;orthogonalLoop=1;jettySize=auto;html=1;fontFamily=Helvetica;fontSize=24;fontColor=#000000;fontStyle=1;endArrow=open;endFill=0;curved=0;flowAnimation=0;" parent="1" source="SuW-aeRowbUI4IWuJljU-30" edge="1">
          <mxGeometry relative="1" as="geometry">
            <mxPoint x="1381" y="640" as="targetPoint" />
          </mxGeometry>
        </mxCell>
        <mxCell id="SuW-aeRowbUI4IWuJljU-47" style="edgeStyle=orthogonalEdgeStyle;rounded=0;orthogonalLoop=1;jettySize=auto;html=1;entryX=1;entryY=0.5;entryDx=0;entryDy=0;fontFamily=Helvetica;fontSize=24;fontColor=#000000;fontStyle=1;curved=1;dashed=1;flowAnimation=1;strokeColor=#0050ef;strokeWidth=2;" parent="1" target="SuW-aeRowbUI4IWuJljU-13" edge="1">
          <mxGeometry relative="1" as="geometry">
            <mxPoint x="1270" y="382.5000000000002" as="sourcePoint" />
            <mxPoint x="549" y="420" as="targetPoint" />
          </mxGeometry>
        </mxCell>
        <mxCell id="SuW-aeRowbUI4IWuJljU-30" value="情指中心" style="shape=ext;double=1;rounded=1;whiteSpace=wrap;html=1;shadow=0;glass=0;strokeColor=#A50040;align=center;verticalAlign=middle;fontFamily=Helvetica;fontSize=24;fontStyle=1;fillColor=#d80073;arcSize=50;fontColor=#ffffff;" parent="1" vertex="1">
          <mxGeometry x="1241" y="360" width="280" height="60" as="geometry" />
        </mxCell>
        <mxCell id="SuW-aeRowbUI4IWuJljU-53" style="edgeStyle=orthogonalEdgeStyle;rounded=0;orthogonalLoop=1;jettySize=auto;html=1;entryX=0.5;entryY=0;entryDx=0;entryDy=0;fontFamily=Helvetica;fontSize=24;fontColor=#000000;fontStyle=1;" parent="1" target="SuW-aeRowbUI4IWuJljU-40" edge="1">
          <mxGeometry relative="1" as="geometry">
            <mxPoint x="1420.000000000001" y="640" as="sourcePoint" />
          </mxGeometry>
        </mxCell>
        <mxCell id="SuW-aeRowbUI4IWuJljU-54" style="edgeStyle=orthogonalEdgeStyle;rounded=0;orthogonalLoop=1;jettySize=auto;html=1;entryX=0.5;entryY=0;entryDx=0;entryDy=0;fontFamily=Helvetica;fontSize=24;fontColor=#000000;fontStyle=1;" parent="1" target="SuW-aeRowbUI4IWuJljU-41" edge="1">
          <mxGeometry relative="1" as="geometry">
            <mxPoint x="1420.000000000001" y="640" as="sourcePoint" />
          </mxGeometry>
        </mxCell>
        <mxCell id="SuW-aeRowbUI4IWuJljU-62" style="edgeStyle=orthogonalEdgeStyle;rounded=0;orthogonalLoop=1;jettySize=auto;html=1;fontFamily=Helvetica;fontSize=24;fontColor=#000000;fontStyle=1;curved=1;dashed=1;strokeWidth=2;strokeColor=#1ba1e2;flowAnimation=1;" parent="1" source="SuW-aeRowbUI4IWuJljU-32" target="SuW-aeRowbUI4IWuJljU-26" edge="1">
          <mxGeometry relative="1" as="geometry" />
        </mxCell>
        <mxCell id="ycdbpMs0jZpuNxchBsQf-3" value="" style="edgeStyle=orthogonalEdgeStyle;rounded=0;orthogonalLoop=1;jettySize=auto;html=1;fontFamily=Helvetica;fontSize=24;fontColor=#000000;fontStyle=1;entryX=0.001;entryY=0.468;entryDx=0;entryDy=0;entryPerimeter=0;curved=1;strokeColor=#c73500;dashed=1;strokeWidth=2;" parent="1" source="SuW-aeRowbUI4IWuJljU-32" target="ycdbpMs0jZpuNxchBsQf-1" edge="1">
          <mxGeometry relative="1" as="geometry">
            <mxPoint x="2315" y="1040" as="targetPoint" />
          </mxGeometry>
        </mxCell>
        <mxCell id="SuW-aeRowbUI4IWuJljU-32" value="" style="rounded=1;whiteSpace=wrap;html=1;shadow=1;glass=0;strokeColor=#C73500;align=center;verticalAlign=middle;fontFamily=Helvetica;fontSize=24;fontColor=#000000;fontStyle=1;fillColor=none;dashed=1;strokeWidth=4;" parent="1" vertex="1">
          <mxGeometry x="930" y="770" width="910" height="540" as="geometry" />
        </mxCell>
        <mxCell id="SuW-aeRowbUI4IWuJljU-58" style="edgeStyle=orthogonalEdgeStyle;rounded=0;orthogonalLoop=1;jettySize=auto;html=1;fontFamily=Helvetica;fontSize=24;fontColor=#000000;fontStyle=1;exitX=0.5;exitY=1;exitDx=0;exitDy=0;" parent="1" target="SuW-aeRowbUI4IWuJljU-39" edge="1">
          <mxGeometry relative="1" as="geometry">
            <mxPoint x="1420" y="640" as="sourcePoint" />
          </mxGeometry>
        </mxCell>
        <mxCell id="SuW-aeRowbUI4IWuJljU-86" style="edgeStyle=orthogonalEdgeStyle;rounded=0;orthogonalLoop=1;jettySize=auto;html=1;fontFamily=Helvetica;fontSize=24;fontColor=#000000;fontStyle=1;" parent="1" target="SuW-aeRowbUI4IWuJljU-84" edge="1">
          <mxGeometry relative="1" as="geometry">
            <mxPoint x="1420.000000000001" y="640" as="sourcePoint" />
          </mxGeometry>
        </mxCell>
        <mxCell id="SuW-aeRowbUI4IWuJljU-38" value="下发指令" style="text;strokeColor=none;fillColor=none;html=1;fontSize=24;fontStyle=1;verticalAlign=middle;align=center;fontFamily=Helvetica;fontColor=#1A1A1A;" parent="1" vertex="1">
          <mxGeometry x="1270" y="480" width="100" height="40" as="geometry" />
        </mxCell>
        <mxCell id="SuW-aeRowbUI4IWuJljU-65" style="edgeStyle=orthogonalEdgeStyle;rounded=0;orthogonalLoop=1;jettySize=auto;html=1;fontFamily=Helvetica;fontSize=24;fontColor=#000000;fontStyle=1;curved=1;exitX=0.5;exitY=1;exitDx=0;exitDy=0;" parent="1" source="SuW-aeRowbUI4IWuJljU-39" edge="1">
          <mxGeometry relative="1" as="geometry">
            <mxPoint x="1381" y="1530" as="targetPoint" />
          </mxGeometry>
        </mxCell>
        <mxCell id="SuW-aeRowbUI4IWuJljU-39" value="网安部门" style="rounded=0;whiteSpace=wrap;html=1;shadow=0;glass=0;strokeColor=#006EAF;align=center;verticalAlign=middle;fontFamily=Helvetica;fontSize=24;fontColor=#ffffff;fontStyle=1;fillColor=#1ba1e2;" parent="1" vertex="1">
          <mxGeometry x="1071" y="917.5" width="40" height="255" as="geometry" />
        </mxCell>
        <mxCell id="SuW-aeRowbUI4IWuJljU-71" style="edgeStyle=orthogonalEdgeStyle;rounded=0;orthogonalLoop=1;jettySize=auto;html=1;entryX=0.5;entryY=0;entryDx=0;entryDy=0;fontFamily=Helvetica;fontSize=24;fontColor=#000000;fontStyle=1;curved=1;exitX=0.5;exitY=1;exitDx=0;exitDy=0;" parent="1" source="SuW-aeRowbUI4IWuJljU-40" edge="1">
          <mxGeometry relative="1" as="geometry">
            <mxPoint x="1381" y="1530" as="targetPoint" />
          </mxGeometry>
        </mxCell>
        <mxCell id="SuW-aeRowbUI4IWuJljU-40" value="反诈部门" style="rounded=0;whiteSpace=wrap;html=1;shadow=0;glass=0;strokeColor=#006EAF;align=center;verticalAlign=middle;fontFamily=Helvetica;fontSize=24;fontColor=#ffffff;fontStyle=1;fillColor=#1ba1e2;" parent="1" vertex="1">
          <mxGeometry x="1260" y="900" width="40" height="245" as="geometry" />
        </mxCell>
        <mxCell id="SuW-aeRowbUI4IWuJljU-67" style="edgeStyle=orthogonalEdgeStyle;rounded=0;orthogonalLoop=1;jettySize=auto;html=1;entryX=0.5;entryY=0;entryDx=0;entryDy=0;fontFamily=Helvetica;fontSize=24;fontColor=#000000;fontStyle=1;curved=1;exitX=0.5;exitY=1;exitDx=0;exitDy=0;" parent="1" source="SuW-aeRowbUI4IWuJljU-41" edge="1">
          <mxGeometry relative="1" as="geometry">
            <mxPoint x="1381" y="1530" as="targetPoint" />
          </mxGeometry>
        </mxCell>
        <mxCell id="SuW-aeRowbUI4IWuJljU-41" value="视频部门" style="rounded=0;whiteSpace=wrap;html=1;shadow=0;glass=0;strokeColor=#006EAF;align=center;verticalAlign=middle;fontFamily=Helvetica;fontSize=24;fontColor=#ffffff;fontStyle=1;fillColor=#1ba1e2;" parent="1" vertex="1">
          <mxGeometry x="1470" y="910" width="40" height="245" as="geometry" />
        </mxCell>
        <mxCell id="SuW-aeRowbUI4IWuJljU-48" style="edgeStyle=orthogonalEdgeStyle;rounded=0;orthogonalLoop=1;jettySize=auto;html=1;exitX=0.5;exitY=1;exitDx=0;exitDy=0;fontFamily=Helvetica;fontSize=24;fontColor=#000000;fontStyle=1;" parent="1" source="SuW-aeRowbUI4IWuJljU-28" target="SuW-aeRowbUI4IWuJljU-28" edge="1">
          <mxGeometry relative="1" as="geometry" />
        </mxCell>
        <mxCell id="SuW-aeRowbUI4IWuJljU-83" style="edgeStyle=orthogonalEdgeStyle;rounded=0;orthogonalLoop=1;jettySize=auto;html=1;fontFamily=Helvetica;fontSize=24;fontColor=#000000;fontStyle=1;curved=1;dashed=1;dashPattern=8 8;flowAnimation=1;strokeColor=#d80073;exitX=0.5;exitY=1;exitDx=0;exitDy=0;entryX=1;entryY=0.555;entryDx=0;entryDy=0;entryPerimeter=0;" parent="1" source="SuW-aeRowbUI4IWuJljU-76" target="SuW-aeRowbUI4IWuJljU-81" edge="1">
          <mxGeometry relative="1" as="geometry">
            <mxPoint x="1521" y="1629.5" as="sourcePoint" />
            <mxPoint x="651" y="1668.5" as="targetPoint" />
          </mxGeometry>
        </mxCell>
        <mxCell id="SuW-aeRowbUI4IWuJljU-76" value="情指中心出具报告" style="shape=ext;double=1;rounded=1;whiteSpace=wrap;html=1;shadow=0;glass=0;strokeColor=#A50040;align=center;verticalAlign=middle;fontFamily=Helvetica;fontSize=24;fontStyle=1;fillColor=#d80073;arcSize=50;fontColor=#ffffff;" parent="1" vertex="1">
          <mxGeometry x="1230" y="1530" width="280" height="60" as="geometry" />
        </mxCell>
        <mxCell id="SuW-aeRowbUI4IWuJljU-79" value="信息整合，提交结论" style="text;strokeColor=none;fillColor=none;html=1;fontSize=24;fontStyle=1;verticalAlign=middle;align=center;fontFamily=Helvetica;fontColor=#f25050;" parent="1" vertex="1">
          <mxGeometry x="1111" y="1470" width="250" height="40" as="geometry" />
        </mxCell>
        <mxCell id="SuW-aeRowbUI4IWuJljU-81" value="&lt;span style=&quot;color: rgb(50, 50, 50); font-family: &amp;quot;Microsoft YaHei&amp;quot;, 微软雅黑, Arial; font-size: 13px; font-weight: 400; background-color: rgba(255, 255, 255, 0.01);&quot;&gt;情指中心：&lt;/span&gt;&lt;span style=&quot;color: rgb(50, 50, 50); font-family: &amp;quot;Microsoft YaHei&amp;quot;, 微软雅黑, Arial; font-size: 13px; font-weight: 400; background-color: rgba(255, 255, 255, 0.01);&quot;&gt;通过不同警种和部门之间相互支持、相互配合，来自不同部门的报告，对信息进行整合，利用大数据分析和智能研判技术，对整合的信息进行深度挖掘和分析，发现犯罪规律、犯罪团伙的组织结构、作案特点等，为侦查和打击提供精确的方向和策略&amp;nbsp;&lt;/span&gt;" style="whiteSpace=wrap;html=1;fontSize=24;fillColor=#FFFFFF;strokeColor=#1A1A1A;fontColor=#000000;rounded=1;shadow=0;glass=0;fontStyle=1;" parent="1" vertex="1">
          <mxGeometry x="77.5" y="1599" width="565" height="100" as="geometry" />
        </mxCell>
        <mxCell id="SuW-aeRowbUI4IWuJljU-88" style="edgeStyle=orthogonalEdgeStyle;rounded=0;orthogonalLoop=1;jettySize=auto;html=1;entryX=0.5;entryY=0;entryDx=0;entryDy=0;fontFamily=Helvetica;fontSize=24;fontColor=#000000;fontStyle=1;curved=1;exitX=0.5;exitY=1;exitDx=0;exitDy=0;" parent="1" source="SuW-aeRowbUI4IWuJljU-84" edge="1">
          <mxGeometry relative="1" as="geometry">
            <mxPoint x="1381" y="1530" as="targetPoint" />
          </mxGeometry>
        </mxCell>
        <mxCell id="SuW-aeRowbUI4IWuJljU-84" value="技侦部门" style="rounded=0;whiteSpace=wrap;html=1;shadow=0;glass=0;strokeColor=#006EAF;align=center;verticalAlign=middle;fontFamily=Helvetica;fontSize=24;fontColor=#ffffff;fontStyle=1;fillColor=#1ba1e2;" parent="1" vertex="1">
          <mxGeometry x="1650" y="917.5" width="40" height="245" as="geometry" />
        </mxCell>
        <mxCell id="ycdbpMs0jZpuNxchBsQf-1" value="" style="rounded=0;whiteSpace=wrap;html=1;shadow=0;glass=0;strokeColor=#c73500;align=center;verticalAlign=middle;fontFamily=Helvetica;fontSize=24;fontStyle=1;fillColor=#d0cee2;" parent="1" vertex="1">
          <mxGeometry x="2170" y="230" width="1010" height="1490" as="geometry" />
        </mxCell>
        <mxCell id="ycdbpMs0jZpuNxchBsQf-6" value="" style="group;fontSize=13;" parent="1" vertex="1" connectable="0">
          <mxGeometry x="2220" y="250" width="930" height="240" as="geometry" />
        </mxCell>
        <mxCell id="ycdbpMs0jZpuNxchBsQf-4" value="情指中心" style="rounded=0;whiteSpace=wrap;html=1;shadow=0;glass=0;strokeColor=#001DBC;align=center;verticalAlign=middle;fontFamily=Helvetica;fontSize=24;fontColor=#ffffff;fontStyle=1;fillColor=#0050ef;fillStyle=auto;" parent="ycdbpMs0jZpuNxchBsQf-6" vertex="1">
          <mxGeometry width="30" height="240" as="geometry" />
        </mxCell>
        <mxCell id="ycdbpMs0jZpuNxchBsQf-5" value="&lt;span style=&quot;color: rgb(50, 50, 50); font-family: &amp;quot;Microsoft YaHei&amp;quot;, 微软雅黑, Arial; font-size: 13px; font-weight: 400; background-color: rgba(255, 255, 255, 0.01);&quot;&gt;1. 负责接听报警电话，及时处理各类警情，并进行指挥调度。&lt;/span&gt;&lt;div style=&quot;resize: none; outline: none; font-size: 13px; color: rgb(50, 50, 50); font-family: &amp;quot;Microsoft YaHei&amp;quot;, 微软雅黑, Arial; font-weight: 400;&quot;&gt;&lt;br&gt;2. 承担授权的警务指挥工作，协调各部门、各警种的处置警力。&lt;/div&gt;&lt;div style=&quot;resize: none; outline: none; font-size: 13px; color: rgb(50, 50, 50); font-family: &amp;quot;Microsoft YaHei&amp;quot;, 微软雅黑, Arial; font-weight: 400;&quot;&gt;&lt;br&gt;3. 组织开展情报分析研判工作，规划情报需求，建设信息系统，管理情报平台，建立情报&lt;/div&gt;&lt;div style=&quot;resize: none; outline: none; font-size: 13px; color: rgb(50, 50, 50); font-family: &amp;quot;Microsoft YaHei&amp;quot;, 微软雅黑, Arial; font-weight: 400;&quot;&gt;&lt;br&gt;&lt;/div&gt;&lt;div style=&quot;resize: none; outline: none; font-size: 13px; color: rgb(50, 50, 50); font-family: &amp;quot;Microsoft YaHei&amp;quot;, 微软雅黑, Arial; font-weight: 400;&quot;&gt;&amp;nbsp;工作规范等。&lt;/div&gt;&lt;div style=&quot;resize: none; outline: none; font-size: 13px; color: rgb(50, 50, 50); font-family: &amp;quot;Microsoft YaHei&amp;quot;, 微软雅黑, Arial; font-weight: 400;&quot;&gt;&lt;br&gt;&lt;/div&gt;&lt;div style=&quot;resize: none; outline: none; font-size: 13px; color: rgb(50, 50, 50); font-family: &amp;quot;Microsoft YaHei&amp;quot;, 微软雅黑, Arial; font-weight: 400;&quot;&gt;4. 负责全局重大案事件的新闻发布。&lt;/div&gt;&lt;div style=&quot;resize: none; outline: none; font-size: 13px; color: rgb(50, 50, 50); font-family: &amp;quot;Microsoft YaHei&amp;quot;, 微软雅黑, Arial; font-weight: 400;&quot;&gt;&lt;br&gt;&lt;/div&gt;&lt;div style=&quot;resize: none; outline: none; font-size: 13px; color: rgb(50, 50, 50); font-family: &amp;quot;Microsoft YaHei&amp;quot;, 微软雅黑, Arial; font-weight: 400;&quot;&gt;5. 通过情指行一体化机制，强化值班勤务，实时跟踪、掌握、传递警情信息，快速、有力、精准下达处置指令，高效指挥处置群体性、个人极端和自然灾害引发的各类重大警情。&lt;/div&gt;" style="shape=note;whiteSpace=wrap;html=1;backgroundOutline=1;darkOpacity=0.05;rounded=1;shadow=0;glass=0;strokeColor=#FFFFFF;align=left;verticalAlign=middle;fontFamily=Helvetica;fontSize=24;fontColor=#000000;fontStyle=1;fillColor=#FFFF99;" parent="ycdbpMs0jZpuNxchBsQf-6" vertex="1">
          <mxGeometry x="30" width="900" height="240" as="geometry" />
        </mxCell>
        <mxCell id="ycdbpMs0jZpuNxchBsQf-16" value="" style="group;fontSize=13;" parent="1" vertex="1" connectable="0">
          <mxGeometry x="2220" y="790" width="930" height="210" as="geometry" />
        </mxCell>
        <mxCell id="ycdbpMs0jZpuNxchBsQf-17" value="视频部门" style="rounded=0;whiteSpace=wrap;html=1;shadow=0;glass=0;strokeColor=#001DBC;align=center;verticalAlign=middle;fontFamily=Helvetica;fontSize=24;fontColor=#ffffff;fontStyle=1;fillColor=#0050ef;fillStyle=auto;" parent="ycdbpMs0jZpuNxchBsQf-16" vertex="1">
          <mxGeometry width="30" height="210" as="geometry" />
        </mxCell>
        <mxCell id="ycdbpMs0jZpuNxchBsQf-18" value="&lt;span style=&quot;color: rgb(50, 50, 50); font-family: &amp;quot;Microsoft YaHei&amp;quot;, 微软雅黑, Arial; font-size: 13px; font-weight: 400; background-color: rgba(255, 255, 255, 0.01);&quot;&gt;1. 视频监控管理与维护：负责管辖区域内各类监控设备的日常运行维护，确保设备正常工作，图像清晰稳定。&lt;/span&gt;&lt;div style=&quot;resize: none; outline: none; font-size: 13px; color: rgb(50, 50, 50); font-family: &amp;quot;Microsoft YaHei&amp;quot;, 微软雅黑, Arial; font-weight: 400;&quot;&gt;&lt;br&gt;2. 视频巡查与分析：通过实时查看监控视频，及时发现异常情况，并对重点区域、重点时段的视频进行深入分析，挖掘潜在的治安隐患和犯罪线索。&lt;/div&gt;&lt;div style=&quot;resize: none; outline: none; font-size: 13px; color: rgb(50, 50, 50); font-family: &amp;quot;Microsoft YaHei&amp;quot;, 微软雅黑, Arial; font-weight: 400;&quot;&gt;&lt;br&gt;3. 案件视频侦查：在各类案件的侦破过程中，对与案件相关的视频资料进行收集、整理和分析，为案件的侦破提供关键证据和线索。&lt;/div&gt;" style="shape=note;whiteSpace=wrap;html=1;backgroundOutline=1;darkOpacity=0.05;rounded=1;shadow=0;glass=0;strokeColor=#FFFFFF;align=left;verticalAlign=middle;fontFamily=Helvetica;fontSize=24;fontColor=#000000;fontStyle=1;fillColor=#FFFF99;" parent="ycdbpMs0jZpuNxchBsQf-16" vertex="1">
          <mxGeometry x="30" width="900" height="210" as="geometry" />
        </mxCell>
        <mxCell id="ycdbpMs0jZpuNxchBsQf-23" value="" style="group;fontSize=13;" parent="1" vertex="1" connectable="0">
          <mxGeometry x="2220" y="1058.44" width="930" height="210" as="geometry" />
        </mxCell>
        <mxCell id="ycdbpMs0jZpuNxchBsQf-24" value="技侦部门" style="rounded=0;whiteSpace=wrap;html=1;shadow=0;glass=0;strokeColor=#001DBC;align=center;verticalAlign=middle;fontFamily=Helvetica;fontSize=24;fontColor=#ffffff;fontStyle=1;fillColor=#0050ef;fillStyle=auto;" parent="ycdbpMs0jZpuNxchBsQf-23" vertex="1">
          <mxGeometry width="30" height="210" as="geometry" />
        </mxCell>
        <mxCell id="ycdbpMs0jZpuNxchBsQf-25" value="&lt;span style=&quot;color: rgb(50, 50, 50); font-family: &amp;quot;Microsoft YaHei&amp;quot;, 微软雅黑, Arial; font-size: 12px; font-weight: 400; background-color: rgba(255, 255, 255, 0.01);&quot;&gt;1. 受理和侦查刑事案件：对各类刑事犯罪案件进行立案、侦查和破案工作，依法追究犯罪嫌疑人的刑事责任。&lt;/span&gt;&lt;br style=&quot;color: rgb(50, 50, 50); font-family: &amp;quot;Microsoft YaHei&amp;quot;, 微软雅黑, Arial; font-size: 12px; font-weight: 400;&quot;&gt;&lt;span style=&quot;color: rgb(50, 50, 50); font-family: &amp;quot;Microsoft YaHei&amp;quot;, 微软雅黑, Arial; font-size: 12px; font-weight: 400; background-color: rgba(255, 255, 255, 0.01);&quot;&gt;2. 现场勘查：对犯罪现场进行细致的勘查，收集和固定证据，包括指纹、足迹、血迹、毛发等物证，以及现场的痕迹、物品等。&lt;/span&gt;&lt;div style=&quot;resize: none; outline: none; font-size: 12px; color: rgb(50, 50, 50); font-family: &amp;quot;Microsoft YaHei&amp;quot;, 微软雅黑, Arial; font-weight: 400;&quot;&gt;&lt;br&gt;3. 调查访问：通过对受害人、证人以及相关人员的调查访问，了解案件情况，获取线索和证据。&lt;/div&gt;&lt;div style=&quot;resize: none; outline: none; font-size: 12px; color: rgb(50, 50, 50); font-family: &amp;quot;Microsoft YaHei&amp;quot;, 微软雅黑, Arial; font-weight: 400;&quot;&gt;&lt;br&gt;4. 情报分析：对收集到的案件信息和线索进行综合分析，判断犯罪动机、犯罪手法和犯罪嫌疑人的特征，为案件侦破提供方向。&lt;/div&gt;&lt;div style=&quot;resize: none; outline: none; font-size: 12px; color: rgb(50, 50, 50); font-family: &amp;quot;Microsoft YaHei&amp;quot;, 微软雅黑, Arial; font-weight: 400;&quot;&gt;&lt;br&gt;5. 追捕逃犯：对在逃的犯罪嫌疑人进行追捕，与其他地区的公安机关协作，实施跨区域的追逃行动。&lt;/div&gt;" style="shape=note;whiteSpace=wrap;html=1;backgroundOutline=1;darkOpacity=0.05;rounded=1;shadow=0;glass=0;strokeColor=#FFFFFF;align=left;verticalAlign=middle;fontFamily=Helvetica;fontSize=24;fontColor=#000000;fontStyle=1;fillColor=#FFFF99;" parent="ycdbpMs0jZpuNxchBsQf-23" vertex="1">
          <mxGeometry x="30" width="900" height="210" as="geometry" />
        </mxCell>
        <mxCell id="ycdbpMs0jZpuNxchBsQf-26" value="" style="group;fontSize=13;" parent="1" vertex="1" connectable="0">
          <mxGeometry x="2220" y="540" width="930" height="210" as="geometry" />
        </mxCell>
        <mxCell id="ycdbpMs0jZpuNxchBsQf-27" value="网安部门" style="rounded=0;whiteSpace=wrap;html=1;shadow=0;glass=0;strokeColor=#001DBC;align=center;verticalAlign=middle;fontFamily=Helvetica;fontSize=24;fontColor=#ffffff;fontStyle=1;fillColor=#0050ef;fillStyle=auto;" parent="ycdbpMs0jZpuNxchBsQf-26" vertex="1">
          <mxGeometry width="30" height="210" as="geometry" />
        </mxCell>
        <mxCell id="ycdbpMs0jZpuNxchBsQf-28" value="&lt;span style=&quot;color: rgb(50, 50, 50); font-family: &amp;quot;Microsoft YaHei&amp;quot;, 微软雅黑, Arial; font-size: 13px; font-weight: 400; background-color: rgba(255, 255, 255, 0.01);&quot;&gt;1. 网络监管与巡查: 对互联网进行日常巡查，及时发现并处理各类违法有害信息，如淫秽色情、暴力恐怖、网络谣言等。&lt;/span&gt;&lt;br style=&quot;color: rgb(50, 50, 50); font-family: &amp;quot;Microsoft YaHei&amp;quot;, 微软雅黑, Arial; font-size: 13px; font-weight: 400;&quot;&gt;&lt;br style=&quot;color: rgb(50, 50, 50); font-family: &amp;quot;Microsoft YaHei&amp;quot;, 微软雅黑, Arial; font-size: 13px; font-weight: 400;&quot;&gt;&lt;div style=&quot;resize: none; outline: none; font-size: 13px; color: rgb(50, 50, 50); font-family: &amp;quot;Microsoft YaHei&amp;quot;, 微软雅黑, Arial; font-weight: 400;&quot;&gt;2. 互联网安全监督： 监督互联网服务提供者和联网使用单位落实安全管理责任，确保网络运行合法合规。&lt;/div&gt;&lt;div style=&quot;resize: none; outline: none; font-size: 13px; color: rgb(50, 50, 50); font-family: &amp;quot;Microsoft YaHei&amp;quot;, 微软雅黑, Arial; font-weight: 400;&quot;&gt;&lt;br&gt;3. 打击网络犯罪：侦查和办理网络诈骗、网络盗窃、网络赌博、侵犯公民个人信息等各类网络犯罪案件。与其他执法部门和国际警务合作机构协作，共同打击跨境网络犯罪活动。&lt;br&gt;&lt;br&gt;&lt;/div&gt;&lt;div style=&quot;resize: none; outline: none; font-size: 13px; color: rgb(50, 50, 50); font-family: &amp;quot;Microsoft YaHei&amp;quot;, 微软雅黑, Arial; font-weight: 400;&quot;&gt;4. 网络安全防护：&amp;nbsp;&lt;span style=&quot;font-size: inherit;&quot;&gt;指导重要信息系统和政府网站的安全防护工作，提高其抵御网络攻击的能力。&lt;/span&gt;&lt;br&gt;&lt;/div&gt;&lt;div style=&quot;resize: none; outline: none; font-size: 13px; color: rgb(50, 50, 50); font-family: &amp;quot;Microsoft YaHei&amp;quot;, 微软雅黑, Arial; font-weight: 400;&quot;&gt;组织开展网络安全宣传教育，提高公众的网络安全意识和防范能力。&lt;/div&gt;" style="shape=note;whiteSpace=wrap;html=1;backgroundOutline=1;darkOpacity=0.05;rounded=1;shadow=0;glass=0;strokeColor=#FFFFFF;align=left;verticalAlign=middle;fontFamily=Helvetica;fontSize=24;fontColor=#000000;fontStyle=1;fillColor=#FFFF99;" parent="ycdbpMs0jZpuNxchBsQf-26" vertex="1">
          <mxGeometry x="30" width="900" height="210" as="geometry" />
        </mxCell>
        <mxCell id="ycdbpMs0jZpuNxchBsQf-29" value="各部门职责介绍" style="rounded=1;whiteSpace=wrap;html=1;shadow=0;glass=0;strokeColor=#C73500;align=center;verticalAlign=middle;fontFamily=Helvetica;fontSize=24;fontColor=#FFFFFF;fontStyle=1;fillColor=#c73500;textShadow=1;" parent="1" vertex="1">
          <mxGeometry x="1930" y="980" width="230" height="50" as="geometry" />
        </mxCell>
        <mxCell id="lQ6mFZz_9Bov2_3zsN5q-3" value="" style="group;fontSize=13;" vertex="1" connectable="0" parent="1">
          <mxGeometry x="2220" y="1340" width="930" height="210" as="geometry" />
        </mxCell>
        <mxCell id="lQ6mFZz_9Bov2_3zsN5q-4" value="反诈部门" style="rounded=0;whiteSpace=wrap;html=1;shadow=0;glass=0;strokeColor=#001DBC;align=center;verticalAlign=middle;fontFamily=Helvetica;fontSize=24;fontColor=#ffffff;fontStyle=1;fillColor=#0050ef;fillStyle=auto;" vertex="1" parent="lQ6mFZz_9Bov2_3zsN5q-3">
          <mxGeometry width="30" height="210" as="geometry" />
        </mxCell>
        <mxCell id="lQ6mFZz_9Bov2_3zsN5q-5" value="&lt;span style=&quot;color: rgb(50, 50, 50); font-family: &amp;quot;Microsoft YaHei&amp;quot;, 微软雅黑, Arial; font-size: 13px; font-weight: 400; background-color: rgba(255, 255, 255, 0.01);&quot;&gt;1. 网络监管与巡查: 对互联网进行日常巡查，及时发现并处理各类违法有害信息，如淫秽色情、暴力恐怖、网络谣言等。&lt;/span&gt;&lt;br style=&quot;color: rgb(50, 50, 50); font-family: &amp;quot;Microsoft YaHei&amp;quot;, 微软雅黑, Arial; font-size: 13px; font-weight: 400;&quot;&gt;&lt;br style=&quot;color: rgb(50, 50, 50); font-family: &amp;quot;Microsoft YaHei&amp;quot;, 微软雅黑, Arial; font-size: 13px; font-weight: 400;&quot;&gt;&lt;div style=&quot;resize: none; outline: none; font-size: 13px; color: rgb(50, 50, 50); font-family: &amp;quot;Microsoft YaHei&amp;quot;, 微软雅黑, Arial; font-weight: 400;&quot;&gt;2. 互联网安全监督： 监督互联网服务提供者和联网使用单位落实安全管理责任，确保网络运行合法合规。&lt;/div&gt;&lt;div style=&quot;resize: none; outline: none; font-size: 13px; color: rgb(50, 50, 50); font-family: &amp;quot;Microsoft YaHei&amp;quot;, 微软雅黑, Arial; font-weight: 400;&quot;&gt;&lt;br&gt;3. 打击网络犯罪：侦查和办理网络诈骗、网络盗窃、网络赌博、侵犯公民个人信息等各类网络犯罪案件。与其他执法部门和国际警务合作机构协作，共同打击跨境网络犯罪活动。&lt;br&gt;&lt;br&gt;&lt;/div&gt;&lt;div style=&quot;resize: none; outline: none; font-size: 13px; color: rgb(50, 50, 50); font-family: &amp;quot;Microsoft YaHei&amp;quot;, 微软雅黑, Arial; font-weight: 400;&quot;&gt;4. 网络安全防护：&amp;nbsp;&lt;span style=&quot;font-size: inherit;&quot;&gt;指导重要信息系统和政府网站的安全防护工作，提高其抵御网络攻击的能力。&lt;/span&gt;&lt;br&gt;&lt;/div&gt;&lt;div style=&quot;resize: none; outline: none; font-size: 13px; color: rgb(50, 50, 50); font-family: &amp;quot;Microsoft YaHei&amp;quot;, 微软雅黑, Arial; font-weight: 400;&quot;&gt;组织开展网络安全宣传教育，提高公众的网络安全意识和防范能力。&lt;/div&gt;" style="shape=note;whiteSpace=wrap;html=1;backgroundOutline=1;darkOpacity=0.05;rounded=1;shadow=0;glass=0;strokeColor=#FFFFFF;align=left;verticalAlign=middle;fontFamily=Helvetica;fontSize=24;fontColor=#000000;fontStyle=1;fillColor=#FFFF99;" vertex="1" parent="lQ6mFZz_9Bov2_3zsN5q-3">
          <mxGeometry x="30" width="900" height="210" as="geometry" />
        </mxCell>
      </root>
    </mxGraphModel>
  </diagram>
</mxfile>
